REM DIRINDEX 1\2\4,1\2\5,1\2\6,1\3\7,1\3\8,1\3\9,1\3\10
REM DIRNAME cjc057,folder01,folder02,folder03,folder04,folder05,folder06,folder07,folder08,folder09
TITLE ""
FILE "a_114.mp3" MP3
  TRACK 01 AUDIO
    TITLE "0:"
    INDEX 01 00:00:00
  TRACK 02 AUDIO
    TITLE "4:cjc057_01736"
    INDEX 01 00:00:13
  TRACK 03 AUDIO
    TITLE "0:"
    INDEX 01 00:01:44
  TRACK 04 AUDIO
    TITLE "5:cjc057_01737"
    INDEX 01 00:01:71
  TRACK 05 AUDIO
    TITLE "0:"
    INDEX 01 00:03:00
  TRACK 06 AUDIO
    TITLE "4:cjc057_01738"
    INDEX 01 00:04:05
  TRACK 07 AUDIO
    TITLE "0:"
    INDEX 01 00:05:36
  TRACK 08 AUDIO
    TITLE "5:cjc057_01739"
    INDEX 01 00:05:67
  TRACK 09 AUDIO
    TITLE "0:"
    INDEX 01 00:08:11
  TRACK 10 AUDIO
    TITLE "4:cjc057_01740"
    INDEX 01 00:09:14
  TRACK 11 AUDIO
    TITLE "0:"
    INDEX 01 00:10:49
  TRACK 12 AUDIO
    TITLE "5:cjc057_01741"
    INDEX 01 00:11:01
  TRACK 13 AUDIO
    TITLE "0:"
    INDEX 01 00:13:22
  TRACK 14 AUDIO
    TITLE "4:cjc057_01742"
    INDEX 01 00:14:25
  TRACK 15 AUDIO
    TITLE "0:"
    INDEX 01 00:15:54
  TRACK 16 AUDIO
    TITLE "5:cjc057_01743"
    INDEX 01 00:16:10
  TRACK 17 AUDIO
    TITLE "0:"
    INDEX 01 00:18:64
  TRACK 18 AUDIO
    TITLE "4:cjc057_01744"
    INDEX 01 00:19:69
  TRACK 19 AUDIO
    TITLE "0:"
    INDEX 01 00:21:51
  TRACK 20 AUDIO
    TITLE "5:cjc057_01745"
    INDEX 01 00:22:09
  TRACK 21 AUDIO
    TITLE "0:"
    INDEX 01 00:23:30
  TRACK 22 AUDIO
    TITLE "4:cjc057_01746"
    INDEX 01 00:24:33
  TRACK 23 AUDIO
    TITLE "0:"
    INDEX 01 00:25:58
  TRACK 24 AUDIO
    TITLE "5:cjc057_01747"
    INDEX 01 00:26:11
  TRACK 25 AUDIO
    TITLE "0:"
    INDEX 01 00:27:04
  TRACK 26 AUDIO
    TITLE "4:cjc057_01748"
    INDEX 01 00:28:10
  TRACK 27 AUDIO
    TITLE "0:"
    INDEX 01 00:29:27
  TRACK 28 AUDIO
    TITLE "5:cjc057_01749"
    INDEX 01 00:29:58
  TRACK 29 AUDIO
    TITLE "0:"
    INDEX 01 00:33:11
  TRACK 30 AUDIO
    TITLE "4:cjc057_01750"
    INDEX 01 00:34:18
  TRACK 31 AUDIO
    TITLE "0:"
    INDEX 01 00:35:45
  TRACK 32 AUDIO
    TITLE "5:cjc057_01751"
    INDEX 01 00:35:74
  TRACK 33 AUDIO
    TITLE "0:"
    INDEX 01 00:36:72
  TRACK 34 AUDIO
    TITLE "4:cjc057_01752"
    INDEX 01 00:37:73
  TRACK 35 AUDIO
    TITLE "0:"
    INDEX 01 00:39:15
  TRACK 36 AUDIO
    TITLE "5:cjc057_01753"
    INDEX 01 00:39:47
  TRACK 37 AUDIO
    TITLE "0:"
    INDEX 01 00:40:60
  TRACK 38 AUDIO
    TITLE "4:cjc057_01754"
    INDEX 01 00:41:67
  TRACK 39 AUDIO
    TITLE "0:"
    INDEX 01 00:43:21
  TRACK 40 AUDIO
    TITLE "5:cjc057_01755"
    INDEX 01 00:43:52
  TRACK 41 AUDIO
    TITLE "0:"
    INDEX 01 00:45:53
  TRACK 42 AUDIO
    TITLE "4:cjc057_01756"
    INDEX 01 00:46:54
  TRACK 43 AUDIO
    TITLE "0:"
    INDEX 01 00:48:34
  TRACK 44 AUDIO
    TITLE "5:cjc057_01757"
    INDEX 01 00:48:63
  TRACK 45 AUDIO
    TITLE "0:"
    INDEX 01 00:50:13
  TRACK 46 AUDIO
    TITLE "4:cjc057_01758"
    INDEX 01 00:51:15
  TRACK 47 AUDIO
    TITLE "0:"
    INDEX 01 00:52:39
  TRACK 48 AUDIO
    TITLE "5:cjc057_01759"
    INDEX 01 00:52:69
  TRACK 49 AUDIO
    TITLE "0:"
    INDEX 01 00:55:18
  TRACK 50 AUDIO
    TITLE "4:cjc057_01760"
    INDEX 01 00:56:22
  TRACK 51 AUDIO
    TITLE "0:"
    INDEX 01 00:57:60
  TRACK 52 AUDIO
    TITLE "5:cjc057_01761"
    INDEX 01 00:58:17
  TRACK 53 AUDIO
    TITLE "0:"
    INDEX 01 01:00:47
  TRACK 54 AUDIO
    TITLE "4:cjc057_01762"
    INDEX 01 01:01:50
  TRACK 55 AUDIO
    TITLE "0:"
    INDEX 01 01:02:69
  TRACK 56 AUDIO
    TITLE "5:cjc057_01763"
    INDEX 01 01:03:26
  TRACK 57 AUDIO
    TITLE "0:"
    INDEX 01 01:04:41
  TRACK 58 AUDIO
    TITLE "4:cjc057_01764"
    INDEX 01 01:05:48
  TRACK 59 AUDIO
    TITLE "0:"
    INDEX 01 01:06:67
  TRACK 60 AUDIO
    TITLE "5:cjc057_01765"
    INDEX 01 01:07:21
  TRACK 61 AUDIO
    TITLE "0:"
    INDEX 01 01:09:48
  TRACK 62 AUDIO
    TITLE "4:cjc057_01766"
    INDEX 01 01:10:51
  TRACK 63 AUDIO
    TITLE "0:"
    INDEX 01 01:12:15
  TRACK 64 AUDIO
    TITLE "5:cjc057_01767"
    INDEX 01 01:12:46
  TRACK 65 AUDIO
    TITLE "0:"
    INDEX 01 01:15:72
  TRACK 66 AUDIO
    TITLE "4:cjc057_01768"
    INDEX 01 01:17:02
  TRACK 67 AUDIO
    TITLE "0:"
    INDEX 01 01:18:37
  TRACK 68 AUDIO
    TITLE "5:cjc057_01769"
    INDEX 01 01:18:68
  TRACK 69 AUDIO
    TITLE "0:"
    INDEX 01 01:21:16
  TRACK 70 AUDIO
    TITLE "4:cjc057_01770"
    INDEX 01 01:22:23
  TRACK 71 AUDIO
    TITLE "0:"
    INDEX 01 01:23:40
  TRACK 72 AUDIO
    TITLE "5:cjc057_01771"
    INDEX 01 01:23:69
  TRACK 73 AUDIO
    TITLE "0:"
    INDEX 01 01:26:36
  TRACK 74 AUDIO
    TITLE "4:cjc057_01772"
    INDEX 01 01:27:40
  TRACK 75 AUDIO
    TITLE "0:"
    INDEX 01 01:29:09
  TRACK 76 AUDIO
    TITLE "5:cjc057_01773"
    INDEX 01 01:29:41
  TRACK 77 AUDIO
    TITLE "0:"
    INDEX 01 01:30:60
  TRACK 78 AUDIO
    TITLE "4:cjc057_01774"
    INDEX 01 01:31:67
  TRACK 79 AUDIO
    TITLE "0:"
    INDEX 01 01:33:34
  TRACK 80 AUDIO
    TITLE "5:cjc057_01775"
    INDEX 01 01:33:66
  TRACK 81 AUDIO
    TITLE "0:"
    INDEX 01 01:37:13
  TRACK 82 AUDIO
    TITLE "4:cjc057_01776"
    INDEX 01 01:38:16
  TRACK 83 AUDIO
    TITLE "0:"
    INDEX 01 01:39:35
  TRACK 84 AUDIO
    TITLE "5:cjc057_01777"
    INDEX 01 01:39:64
  TRACK 85 AUDIO
    TITLE "0:"
    INDEX 01 01:42:12
  TRACK 86 AUDIO
    TITLE "4:cjc057_01778"
    INDEX 01 01:43:17
  TRACK 87 AUDIO
    TITLE "0:"
    INDEX 01 01:44:26
  TRACK 88 AUDIO
    TITLE "5:cjc057_01779"
    INDEX 01 01:44:58
  TRACK 89 AUDIO
    TITLE "0:"
    INDEX 01 01:45:67
  TRACK 90 AUDIO
    TITLE "4:cjc057_01780"
    INDEX 01 01:46:72
  TRACK 91 AUDIO
    TITLE "0:"
    INDEX 01 01:48:11
  TRACK 92 AUDIO
    TITLE "5:cjc057_01781"
    INDEX 01 01:48:40
  TRACK 93 AUDIO
    TITLE "0:"
    INDEX 01 01:51:27
  TRACK 94 AUDIO
    TITLE "4:cjc057_01782"
    INDEX 01 01:52:30
  TRACK 95 AUDIO
    TITLE "0:"
    INDEX 01 01:53:49
  TRACK 96 AUDIO
    TITLE "5:cjc057_01783"
    INDEX 01 01:54:05
  TRACK 97 AUDIO
    TITLE "0:"
    INDEX 01 01:55:32
  TRACK 98 AUDIO
    TITLE "4:cjc057_01784"
    INDEX 01 01:56:37
  TRACK 99 AUDIO
    TITLE "0:"
    INDEX 01 01:57:57
  TRACK 100 AUDIO
    TITLE "5:cjc057_01785"
    INDEX 01 01:58:13
  TRACK 101 AUDIO
    TITLE "0:"
    INDEX 01 02:00:39
  TRACK 102 AUDIO
    TITLE "4:cjc057_01786"
    INDEX 01 02:01:45
  TRACK 103 AUDIO
    TITLE "0:"
    INDEX 01 02:02:67
  TRACK 104 AUDIO
    TITLE "5:cjc057_01787"
    INDEX 01 02:03:24
  TRACK 105 AUDIO
    TITLE "0:"
    INDEX 01 02:05:48
